<svg xmlns="http://www.w3.org/2000/svg" xmlns:xl="http://www.w3.org/1999/xlink" width="1068.5pt" height="374.8pt" version="1.1" viewBox="275.5 -20.3 1068.5 374.8" style="zoom:1"><metadata>Produced by OmniGraffle 7.4.3</metadata><defs><marker id="FilledArrow_Marker" color="#7f8080" markerHeight="8" markerUnits="strokeWidth" markerWidth="10" orient="auto" overflow="visible" viewBox="-1 -4 10 8"><g><path fill="currentColor" stroke="currentColor" stroke-width="1" d="M 8 0 L 0 -3 L 0 3 Z"/></g></marker></defs><g fill="none" fill-opacity="1" stroke="none" stroke-dasharray="none" stroke-opacity="1"><title>Canvas 1</title><g><title>Layer 1</title><circle cx="299.25" cy="330.75" r="23.25" fill="#dadada"/><circle cx="299.25" cy="330.75" r="23.25" stroke="gray" stroke-linecap="round" stroke-linejoin="round" stroke-width="1"/><rect width="46.5" height="18" x="276" y="273" fill="#80ff80"/><rect width="46.5" height="18" x="276" y="273" stroke="gray" stroke-linecap="round" stroke-linejoin="round" stroke-width="1"/><line x1="299.25" x2="299.25" y1="307.5" y2="300.9" stroke="#7f8080" stroke-linecap="round" stroke-linejoin="round" stroke-width="1" marker-end="url(#FilledArrow_Marker)"/><circle cx="364.75" cy="330.75" r="23.25" fill="#dadada"/><circle cx="364.75" cy="330.75" r="23.25" stroke="gray" stroke-linecap="round" stroke-linejoin="round" stroke-width="1"/><rect width="46.5" height="18" x="341.5" y="273" fill="#80ff80"/><rect width="46.5" height="18" x="341.5" y="273" stroke="gray" stroke-linecap="round" stroke-linejoin="round" stroke-width="1"/><line x1="364.75" x2="364.75" y1="307.5" y2="300.9" stroke="#7f8080" stroke-linecap="round" stroke-linejoin="round" stroke-width="1" marker-end="url(#FilledArrow_Marker)"/><circle cx="430.25" cy="330.75" r="23.25" fill="#dadada"/><circle cx="430.25" cy="330.75" r="23.25" stroke="gray" stroke-linecap="round" stroke-linejoin="round" stroke-width="1"/><rect width="46.5" height="18" x="407" y="273" fill="#80ff80"/><rect width="46.5" height="18" x="407" y="273" stroke="gray" stroke-linecap="round" stroke-linejoin="round" stroke-width="1"/><line x1="430.25" x2="430.25" y1="307.5" y2="300.9" stroke="#7f8080" stroke-linecap="round" stroke-linejoin="round" stroke-width="1" marker-end="url(#FilledArrow_Marker)"/><circle cx="495.75" cy="330.75" r="23.25" fill="#dadada"/><circle cx="495.75" cy="330.75" r="23.25" stroke="gray" stroke-linecap="round" stroke-linejoin="round" stroke-width="1"/><rect width="46.5" height="18" x="472.5" y="273" fill="#80ff80"/><rect width="46.5" height="18" x="472.5" y="273" stroke="gray" stroke-linecap="round" stroke-linejoin="round" stroke-width="1"/><line x1="495.75" x2="495.75" y1="307.5" y2="300.9" stroke="#7f8080" stroke-linecap="round" stroke-linejoin="round" stroke-width="1" marker-end="url(#FilledArrow_Marker)"/><circle cx="561.25" cy="330.75" r="23.25" fill="#dadada"/><circle cx="561.25" cy="330.75" r="23.25" stroke="gray" stroke-linecap="round" stroke-linejoin="round" stroke-width="1"/><rect width="46.5" height="18" x="538" y="273" fill="#80ff80"/><rect width="46.5" height="18" x="538" y="273" stroke="gray" stroke-linecap="round" stroke-linejoin="round" stroke-width="1"/><line x1="561.25" x2="561.25" y1="307.5" y2="300.9" stroke="#7f8080" stroke-linecap="round" stroke-linejoin="round" stroke-width="1" marker-end="url(#FilledArrow_Marker)"/><circle cx="626.75" cy="330.75" r="23.25" fill="#dadada"/><circle cx="626.75" cy="330.75" r="23.25" stroke="gray" stroke-linecap="round" stroke-linejoin="round" stroke-width="1"/><rect width="46.5" height="18" x="603.5" y="273" fill="#80ff80"/><rect width="46.5" height="18" x="603.5" y="273" stroke="gray" stroke-linecap="round" stroke-linejoin="round" stroke-width="1"/><line x1="626.75" x2="626.75" y1="307.5" y2="300.9" stroke="#7f8080" stroke-linecap="round" stroke-linejoin="round" stroke-width="1" marker-end="url(#FilledArrow_Marker)"/><circle cx="692.25" cy="330.75" r="23.25" fill="#fff"/><circle cx="692.25" cy="330.75" r="23.25" stroke="gray" stroke-linecap="round" stroke-linejoin="round" stroke-width="1"/><rect width="46.5" height="18" x="669" y="273" fill="#fff"/><rect width="46.5" height="18" x="669" y="273" stroke="gray" stroke-linecap="round" stroke-linejoin="round" stroke-width="1"/><line x1="692.25" x2="692.25" y1="307.5" y2="300.9" stroke="#7f8080" stroke-linecap="round" stroke-linejoin="round" stroke-width="1" marker-end="url(#FilledArrow_Marker)"/><circle cx="757.75" cy="330.75" r="23.25" fill="#fff"/><circle cx="757.75" cy="330.75" r="23.25" stroke="gray" stroke-linecap="round" stroke-linejoin="round" stroke-width="1"/><rect width="46.5" height="18" x="734.5" y="273" fill="#fff"/><rect width="46.5" height="18" x="734.5" y="273" stroke="gray" stroke-linecap="round" stroke-linejoin="round" stroke-width="1"/><line x1="757.75" x2="757.75" y1="307.5" y2="300.9" stroke="#7f8080" stroke-linecap="round" stroke-linejoin="round" stroke-width="1" marker-end="url(#FilledArrow_Marker)"/><circle cx="332.75" cy="233.25" r="23.25" fill="#ff8080"/><circle cx="332.75" cy="233.25" r="23.25" stroke="gray" stroke-linecap="round" stroke-linejoin="round" stroke-width="1"/><rect width="46.5" height="18" x="309.5" y="175.5" fill="#fff"/><rect width="46.5" height="18" x="309.5" y="175.5" stroke="gray" stroke-linecap="round" stroke-linejoin="round" stroke-width="1"/><line x1="332.75" x2="332.75" y1="210" y2="203.4" stroke="#7f8080" stroke-linecap="round" stroke-linejoin="round" stroke-width="1" marker-end="url(#FilledArrow_Marker)"/><circle cx="463.25" cy="233.25" r="23.25" fill="#ff8080"/><circle cx="463.25" cy="233.25" r="23.25" stroke="gray" stroke-linecap="round" stroke-linejoin="round" stroke-width="1"/><rect width="46.5" height="18" x="440" y="175.5" fill="#fff"/><rect width="46.5" height="18" x="440" y="175.5" stroke="gray" stroke-linecap="round" stroke-linejoin="round" stroke-width="1"/><line x1="463.25" x2="463.25" y1="210" y2="203.4" stroke="#7f8080" stroke-linecap="round" stroke-linejoin="round" stroke-width="1" marker-end="url(#FilledArrow_Marker)"/><circle cx="593.75" cy="233.25" r="23.25" fill="#80ffff"/><circle cx="593.75" cy="233.25" r="23.25" stroke="gray" stroke-linecap="round" stroke-linejoin="round" stroke-width="1"/><rect width="46.5" height="18" x="570.5" y="175.5" fill="#fff"/><rect width="46.5" height="18" x="570.5" y="175.5" stroke="gray" stroke-linecap="round" stroke-linejoin="round" stroke-width="1"/><line x1="593.75" x2="593.75" y1="210" y2="203.4" stroke="#7f8080" stroke-linecap="round" stroke-linejoin="round" stroke-width="1" marker-end="url(#FilledArrow_Marker)"/><circle cx="724.25" cy="233.25" r="23.25" fill="#fff"/><circle cx="724.25" cy="233.25" r="23.25" stroke="gray" stroke-linecap="round" stroke-linejoin="round" stroke-width="1"/><rect width="46.5" height="18" x="701" y="175.5" fill="#fff"/><rect width="46.5" height="18" x="701" y="175.5" stroke="gray" stroke-linecap="round" stroke-linejoin="round" stroke-width="1"/><line x1="724.25" x2="724.25" y1="210" y2="203.4" stroke="#7f8080" stroke-linecap="round" stroke-linejoin="round" stroke-width="1" marker-end="url(#FilledArrow_Marker)"/><circle cx="396.25" cy="135.75" r="23.25" fill="#fff"/><circle cx="396.25" cy="135.75" r="23.25" stroke="gray" stroke-linecap="round" stroke-linejoin="round" stroke-width="1"/><rect width="46.5" height="18" x="373" y="78" fill="#fff"/><rect width="46.5" height="18" x="373" y="78" stroke="gray" stroke-linecap="round" stroke-linejoin="round" stroke-width="1"/><line x1="396.25" x2="396.25" y1="112.5" y2="105.9" stroke="#7f8080" stroke-linecap="round" stroke-linejoin="round" stroke-width="1" marker-end="url(#FilledArrow_Marker)"/><circle cx="659.25" cy="135.75" r="23.25" fill="#fff"/><circle cx="659.25" cy="135.75" r="23.25" stroke="gray" stroke-linecap="round" stroke-linejoin="round" stroke-width="1"/><rect width="46.5" height="18" x="636" y="78" fill="#fff"/><rect width="46.5" height="18" x="636" y="78" stroke="gray" stroke-linecap="round" stroke-linejoin="round" stroke-width="1"/><line x1="659.25" x2="659.25" y1="112.5" y2="105.9" stroke="#7f8080" stroke-linecap="round" stroke-linejoin="round" stroke-width="1" marker-end="url(#FilledArrow_Marker)"/><circle cx="527.75" cy="41.75" r="23.25" fill="#fff"/><circle cx="527.75" cy="41.75" r="23.25" stroke="gray" stroke-linecap="round" stroke-linejoin="round" stroke-width="1"/><rect width="46.5" height="18" x="504.5" y="-16" fill="#fff"/><rect width="46.5" height="18" x="504.5" y="-16" stroke="gray" stroke-linecap="round" stroke-linejoin="round" stroke-width="1"/><line x1="527.75" x2="527.75" y1="18.5" y2="11.9" stroke="#7f8080" stroke-linecap="round" stroke-linejoin="round" stroke-width="1" marker-end="url(#FilledArrow_Marker)"/><line x1="305.435" x2="313.973" y1="273" y2="260.574" stroke="#7f8080" stroke-linecap="round" stroke-linejoin="round" stroke-width="1" marker-end="url(#FilledArrow_Marker)"/><line x1="358.842" x2="350.944" y1="273" y2="260.967" stroke="#7f8080" stroke-linecap="round" stroke-linejoin="round" stroke-width="1" marker-end="url(#FilledArrow_Marker)"/><line x1="436.342" x2="444.665" y1="273" y2="260.705" stroke="#7f8080" stroke-linecap="round" stroke-linejoin="round" stroke-width="1" marker-end="url(#FilledArrow_Marker)"/><line x1="489.75" x2="481.641" y1="273" y2="260.836" stroke="#7f8080" stroke-linecap="round" stroke-linejoin="round" stroke-width="1" marker-end="url(#FilledArrow_Marker)"/><line x1="567.25" x2="575.359" y1="273" y2="260.836" stroke="#7f8080" stroke-linecap="round" stroke-linejoin="round" stroke-width="1" marker-end="url(#FilledArrow_Marker)"/><line x1="620.658" x2="612.335" y1="273" y2="260.705" stroke="#7f8080" stroke-linecap="round" stroke-linejoin="round" stroke-width="1" marker-end="url(#FilledArrow_Marker)"/><line x1="698.158" x2="706.056" y1="273" y2="260.967" stroke="#7f8080" stroke-linecap="round" stroke-linejoin="round" stroke-width="1" marker-end="url(#FilledArrow_Marker)"/><line x1="751.565" x2="743.027" y1="273" y2="260.574" stroke="#7f8080" stroke-linecap="round" stroke-linejoin="round" stroke-width="1" marker-end="url(#FilledArrow_Marker)"/><line x1="344.473" x2="369.953" y1="175.5" y2="155.938" stroke="#7f8080" stroke-linecap="round" stroke-linejoin="round" stroke-width="1" marker-end="url(#FilledArrow_Marker)"/><line x1="450.881" x2="423.058" y1="175.5" y2="155.256" stroke="#7f8080" stroke-linecap="round" stroke-linejoin="round" stroke-width="1" marker-end="url(#FilledArrow_Marker)"/><line x1="605.842" x2="632.655" y1="175.5" y2="155.544" stroke="#7f8080" stroke-linecap="round" stroke-linejoin="round" stroke-width="1" marker-end="url(#FilledArrow_Marker)"/><line x1="712.25" x2="685.772" y1="175.5" y2="155.642" stroke="#7f8080" stroke-linecap="round" stroke-linejoin="round" stroke-width="1" marker-end="url(#FilledArrow_Marker)"/><line x1="419.5" x2="496.399" y1="79" y2="52.538" stroke="#7f8080" stroke-linecap="round" stroke-linejoin="round" stroke-width="1" marker-end="url(#FilledArrow_Marker)"/><line x1="636" x2="559.101" y1="79" y2="52.538" stroke="#7f8080" stroke-linecap="round" stroke-linejoin="round" stroke-width="1" marker-end="url(#FilledArrow_Marker)"/><circle cx="861.75" cy="330.75" r="23.25" fill="#dadada"/><circle cx="861.75" cy="330.75" r="23.25" stroke="gray" stroke-linecap="round" stroke-linejoin="round" stroke-width="1"/><rect width="46.5" height="18" x="838.5" y="273" fill="#dadada"/><rect width="46.5" height="18" x="838.5" y="273" stroke="gray" stroke-linecap="round" stroke-linejoin="round" stroke-width="1"/><line x1="861.75" x2="861.75" y1="307.5" y2="300.9" stroke="#7f8080" stroke-linecap="round" stroke-linejoin="round" stroke-width="1" marker-end="url(#FilledArrow_Marker)"/><circle cx="927.25" cy="330.75" r="23.25" fill="#dadada"/><circle cx="927.25" cy="330.75" r="23.25" stroke="gray" stroke-linecap="round" stroke-linejoin="round" stroke-width="1"/><rect width="46.5" height="18" x="904" y="273" fill="#dadada"/><rect width="46.5" height="18" x="904" y="273" stroke="gray" stroke-linecap="round" stroke-linejoin="round" stroke-width="1"/><line x1="927.25" x2="927.25" y1="307.5" y2="300.9" stroke="#7f8080" stroke-linecap="round" stroke-linejoin="round" stroke-width="1" marker-end="url(#FilledArrow_Marker)"/><circle cx="992.75" cy="330.75" r="23.25" fill="#dadada"/><circle cx="992.75" cy="330.75" r="23.25" stroke="gray" stroke-linecap="round" stroke-linejoin="round" stroke-width="1"/><rect width="46.5" height="18" x="969.5" y="273" fill="#dadada"/><rect width="46.5" height="18" x="969.5" y="273" stroke="gray" stroke-linecap="round" stroke-linejoin="round" stroke-width="1"/><line x1="992.75" x2="992.75" y1="307.5" y2="300.9" stroke="#7f8080" stroke-linecap="round" stroke-linejoin="round" stroke-width="1" marker-end="url(#FilledArrow_Marker)"/><circle cx="1058.25" cy="330.75" r="23.25" fill="#dadada"/><circle cx="1058.25" cy="330.75" r="23.25" stroke="gray" stroke-linecap="round" stroke-linejoin="round" stroke-width="1"/><rect width="46.5" height="18" x="1035" y="273" fill="#dadada"/><rect width="46.5" height="18" x="1035" y="273" stroke="gray" stroke-linecap="round" stroke-linejoin="round" stroke-width="1"/><line x1="1058.25" x2="1058.25" y1="307.5" y2="300.9" stroke="#7f8080" stroke-linecap="round" stroke-linejoin="round" stroke-width="1" marker-end="url(#FilledArrow_Marker)"/><circle cx="1123.75" cy="330.75" r="23.25" fill="#ff8080"/><circle cx="1123.75" cy="330.75" r="23.25" stroke="gray" stroke-linecap="round" stroke-linejoin="round" stroke-width="1"/><rect width="46.5" height="18" x="1100.5" y="273" fill="#fff"/><rect width="46.5" height="18" x="1100.5" y="273" stroke="gray" stroke-linecap="round" stroke-linejoin="round" stroke-width="1"/><line x1="1123.75" x2="1123.75" y1="307.5" y2="300.9" stroke="#7f8080" stroke-linecap="round" stroke-linejoin="round" stroke-width="1" marker-end="url(#FilledArrow_Marker)"/><circle cx="1189.25" cy="330.75" r="23.25" fill="#fff"/><circle cx="1189.25" cy="330.75" r="23.25" stroke="gray" stroke-linecap="round" stroke-linejoin="round" stroke-width="1"/><rect width="46.5" height="18" x="1166" y="273" fill="#fff"/><rect width="46.5" height="18" x="1166" y="273" stroke="gray" stroke-linecap="round" stroke-linejoin="round" stroke-width="1"/><line x1="1189.25" x2="1189.25" y1="307.5" y2="300.9" stroke="#7f8080" stroke-linecap="round" stroke-linejoin="round" stroke-width="1" marker-end="url(#FilledArrow_Marker)"/><circle cx="1254.75" cy="330.75" r="23.25" fill="#fff"/><circle cx="1254.75" cy="330.75" r="23.25" stroke="gray" stroke-linecap="round" stroke-linejoin="round" stroke-width="1"/><rect width="46.5" height="18" x="1231.5" y="273" fill="#fff"/><rect width="46.5" height="18" x="1231.5" y="273" stroke="gray" stroke-linecap="round" stroke-linejoin="round" stroke-width="1"/><line x1="1254.75" x2="1254.75" y1="307.5" y2="300.9" stroke="#7f8080" stroke-linecap="round" stroke-linejoin="round" stroke-width="1" marker-end="url(#FilledArrow_Marker)"/><circle cx="1320.25" cy="330.75" r="23.25" fill="#fff"/><circle cx="1320.25" cy="330.75" r="23.25" stroke="gray" stroke-linecap="round" stroke-linejoin="round" stroke-width="1"/><rect width="46.5" height="18" x="1297" y="273" fill="#fff"/><rect width="46.5" height="18" x="1297" y="273" stroke="gray" stroke-linecap="round" stroke-linejoin="round" stroke-width="1"/><line x1="1320.25" x2="1320.25" y1="307.5" y2="300.9" stroke="#7f8080" stroke-linecap="round" stroke-linejoin="round" stroke-width="1" marker-end="url(#FilledArrow_Marker)"/><circle cx="895.25" cy="233.25" r="23.25" fill="#dadada"/><circle cx="895.25" cy="233.25" r="23.25" stroke="gray" stroke-linecap="round" stroke-linejoin="round" stroke-width="1"/><rect width="46.5" height="18" x="872" y="175.5" fill="#80ff80"/><rect width="46.5" height="18" x="872" y="175.5" stroke="gray" stroke-linecap="round" stroke-linejoin="round" stroke-width="1"/><line x1="895.25" x2="895.25" y1="210" y2="203.4" stroke="#7f8080" stroke-linecap="round" stroke-linejoin="round" stroke-width="1" marker-end="url(#FilledArrow_Marker)"/><circle cx="1025.75" cy="233.25" r="23.25" fill="#dadada"/><circle cx="1025.75" cy="233.25" r="23.25" stroke="gray" stroke-linecap="round" stroke-linejoin="round" stroke-width="1"/><rect width="46.5" height="18" x="1002.5" y="175.5" fill="#80ff80"/><rect width="46.5" height="18" x="1002.5" y="175.5" stroke="gray" stroke-linecap="round" stroke-linejoin="round" stroke-width="1"/><line x1="1025.75" x2="1025.75" y1="210" y2="203.4" stroke="#7f8080" stroke-linecap="round" stroke-linejoin="round" stroke-width="1" marker-end="url(#FilledArrow_Marker)"/><circle cx="1156.25" cy="233.25" r="23.25" fill="#fff"/><circle cx="1156.25" cy="233.25" r="23.25" stroke="gray" stroke-linecap="round" stroke-linejoin="round" stroke-width="1"/><rect width="46.5" height="18" x="1133" y="175.5" fill="#fff"/><rect width="46.5" height="18" x="1133" y="175.5" stroke="gray" stroke-linecap="round" stroke-linejoin="round" stroke-width="1"/><line x1="1156.25" x2="1156.25" y1="210" y2="203.4" stroke="#7f8080" stroke-linecap="round" stroke-linejoin="round" stroke-width="1" marker-end="url(#FilledArrow_Marker)"/><circle cx="1286.75" cy="233.25" r="23.25" fill="#fff"/><circle cx="1286.75" cy="233.25" r="23.25" stroke="gray" stroke-linecap="round" stroke-linejoin="round" stroke-width="1"/><rect width="46.5" height="18" x="1263.5" y="175.5" fill="#fff"/><rect width="46.5" height="18" x="1263.5" y="175.5" stroke="gray" stroke-linecap="round" stroke-linejoin="round" stroke-width="1"/><line x1="1286.75" x2="1286.75" y1="210" y2="203.4" stroke="#7f8080" stroke-linecap="round" stroke-linejoin="round" stroke-width="1" marker-end="url(#FilledArrow_Marker)"/><circle cx="958.75" cy="135.75" r="23.25" fill="#ff8080"/><circle cx="958.75" cy="135.75" r="23.25" stroke="gray" stroke-linecap="round" stroke-linejoin="round" stroke-width="1"/><rect width="46.5" height="18" x="935.5" y="78" fill="#fff"/><rect width="46.5" height="18" x="935.5" y="78" stroke="gray" stroke-linecap="round" stroke-linejoin="round" stroke-width="1"/><line x1="958.75" x2="958.75" y1="112.5" y2="105.9" stroke="#7f8080" stroke-linecap="round" stroke-linejoin="round" stroke-width="1" marker-end="url(#FilledArrow_Marker)"/><circle cx="1221.75" cy="135.75" r="23.25" fill="#fff"/><circle cx="1221.75" cy="135.75" r="23.25" stroke="gray" stroke-linecap="round" stroke-linejoin="round" stroke-width="1"/><rect width="46.5" height="18" x="1198.5" y="78" fill="#fff"/><rect width="46.5" height="18" x="1198.5" y="78" stroke="gray" stroke-linecap="round" stroke-linejoin="round" stroke-width="1"/><line x1="1221.75" x2="1221.75" y1="112.5" y2="105.9" stroke="#7f8080" stroke-linecap="round" stroke-linejoin="round" stroke-width="1" marker-end="url(#FilledArrow_Marker)"/><circle cx="1090.25" cy="41.75" r="23.25" fill="#fff"/><circle cx="1090.25" cy="41.75" r="23.25" stroke="gray" stroke-linecap="round" stroke-linejoin="round" stroke-width="1"/><line x1="1090.25" x2="1090.25" y1="18.5" y2="11.9" stroke="#7f8080" stroke-linecap="round" stroke-linejoin="round" stroke-width="1" marker-end="url(#FilledArrow_Marker)"/><line x1="867.935" x2="876.473" y1="273" y2="260.574" stroke="#7f8080" stroke-linecap="round" stroke-linejoin="round" stroke-width="1" marker-end="url(#FilledArrow_Marker)"/><line x1="921.342" x2="913.444" y1="273" y2="260.967" stroke="#7f8080" stroke-linecap="round" stroke-linejoin="round" stroke-width="1" marker-end="url(#FilledArrow_Marker)"/><line x1="998.842" x2="1007.165" y1="273" y2="260.705" stroke="#7f8080" stroke-linecap="round" stroke-linejoin="round" stroke-width="1" marker-end="url(#FilledArrow_Marker)"/><line x1="1052.25" x2="1044.141" y1="273" y2="260.836" stroke="#7f8080" stroke-linecap="round" stroke-linejoin="round" stroke-width="1" marker-end="url(#FilledArrow_Marker)"/><line x1="1129.75" x2="1137.859" y1="273" y2="260.836" stroke="#7f8080" stroke-linecap="round" stroke-linejoin="round" stroke-width="1" marker-end="url(#FilledArrow_Marker)"/><line x1="1183.158" x2="1174.835" y1="273" y2="260.705" stroke="#7f8080" stroke-linecap="round" stroke-linejoin="round" stroke-width="1" marker-end="url(#FilledArrow_Marker)"/><line x1="1260.658" x2="1268.556" y1="273" y2="260.967" stroke="#7f8080" stroke-linecap="round" stroke-linejoin="round" stroke-width="1" marker-end="url(#FilledArrow_Marker)"/><line x1="1314.065" x2="1305.527" y1="273" y2="260.574" stroke="#7f8080" stroke-linecap="round" stroke-linejoin="round" stroke-width="1" marker-end="url(#FilledArrow_Marker)"/><line x1="906.973" x2="932.453" y1="175.5" y2="155.938" stroke="#7f8080" stroke-linecap="round" stroke-linejoin="round" stroke-width="1" marker-end="url(#FilledArrow_Marker)"/><line x1="1013.381" x2="985.558" y1="175.5" y2="155.256" stroke="#7f8080" stroke-linecap="round" stroke-linejoin="round" stroke-width="1" marker-end="url(#FilledArrow_Marker)"/><line x1="1168.342" x2="1195.155" y1="175.5" y2="155.544" stroke="#7f8080" stroke-linecap="round" stroke-linejoin="round" stroke-width="1" marker-end="url(#FilledArrow_Marker)"/><line x1="1274.75" x2="1248.272" y1="175.5" y2="155.642" stroke="#7f8080" stroke-linecap="round" stroke-linejoin="round" stroke-width="1" marker-end="url(#FilledArrow_Marker)"/><line x1="982" x2="1058.899" y1="79" y2="52.538" stroke="#7f8080" stroke-linecap="round" stroke-linejoin="round" stroke-width="1" marker-end="url(#FilledArrow_Marker)"/><line x1="1198.5" x2="1121.601" y1="79" y2="52.538" stroke="#7f8080" stroke-linecap="round" stroke-linejoin="round" stroke-width="1" marker-end="url(#FilledArrow_Marker)"/><rect width="46.5" height="18" x="1067" y="-16" fill="#fff"/><rect width="46.5" height="18" x="1067" y="-16" stroke="gray" stroke-linecap="round" stroke-linejoin="round" stroke-width="1"/></g></g></svg>